<svg width="551" height="123" viewBox="0 0 551 123" fill="none" xmlns="http://www.w3.org/2000/svg">
<path d="M317.851 93.1547C316.062 95.2898 313.985 96.9055 311.619 98.0019C309.311 99.156 306.801 99.733 304.089 99.733C301.088 99.733 298.087 98.8963 295.087 97.2229C292.086 95.5494 288.826 92.895 285.306 89.2597H284.181C278.352 89.2597 273.073 87.9325 268.341 85.2781C263.609 82.6237 259.887 78.9883 257.175 74.372C254.463 69.6979 253.107 64.4757 253.107 58.7052C253.107 52.9348 254.463 47.7414 257.175 43.1251C259.887 38.451 263.609 34.7868 268.341 32.1324C273.073 29.478 278.352 28.1508 284.181 28.1508C290.009 28.1508 295.289 29.478 300.02 32.1324C304.752 34.7868 308.474 38.451 311.186 43.1251C313.898 47.7414 315.254 52.9348 315.254 58.7052C315.254 64.0717 314.071 68.9766 311.706 73.4198C309.34 77.8054 306.051 81.383 301.838 84.1528C297.683 86.9226 292.981 88.5672 287.729 89.0866C293.384 95.0878 298.837 98.0884 304.089 98.0884C309.051 98.0884 313.235 96.0399 316.639 91.9429L317.851 93.1547ZM254.838 58.7052C254.838 64.0717 256.107 68.9766 258.646 73.4198C261.243 77.8054 264.763 81.2676 269.206 83.8066C273.707 86.3456 278.699 87.6151 284.181 87.6151C289.663 87.6151 294.625 86.3456 299.068 83.8066C303.569 81.2676 307.089 77.8054 309.628 73.4198C312.225 68.9766 313.523 64.0717 313.523 58.7052C313.523 53.3387 312.225 48.4627 309.628 44.0772C307.089 39.634 303.569 36.1429 299.068 33.6039C294.625 31.0649 289.663 29.7954 284.181 29.7954C278.699 29.7954 273.707 31.0649 269.206 33.6039C264.763 36.1429 261.243 39.634 258.646 44.0772C256.107 48.4627 254.838 53.3387 254.838 58.7052ZM367.875 44.2503V89H366.144V77.1418C364.817 80.9502 362.595 83.922 359.479 86.0571C356.363 88.1921 352.584 89.2597 348.14 89.2597C342.37 89.2597 337.869 87.6728 334.638 84.4991C331.406 81.2676 329.79 76.6513 329.79 70.65V44.2503H331.522V70.65C331.522 76.1319 332.964 80.3444 335.849 83.2873C338.735 86.1725 342.803 87.6151 348.054 87.6151C353.651 87.6151 358.066 85.884 361.297 82.4217C364.528 78.9017 366.144 74.2854 366.144 68.5727V44.2503H367.875ZM423.969 66.5819H384.153C384.153 70.6212 385.048 74.2565 386.837 77.488C388.625 80.6617 391.078 83.143 394.194 84.9318C397.368 86.7207 400.916 87.6151 404.84 87.6151C407.899 87.6151 410.755 87.0381 413.409 85.884C416.121 84.6722 418.343 82.941 420.074 80.6906L421.286 81.9024C419.324 84.2682 416.901 86.0859 414.015 87.3554C411.13 88.6249 408.072 89.2597 404.84 89.2597C400.57 89.2597 396.733 88.3075 393.328 86.4033C389.981 84.4414 387.327 81.7293 385.365 78.267C383.461 74.8047 382.509 70.9097 382.509 66.5819C382.509 62.2541 383.403 58.3879 385.192 54.9833C386.981 51.5211 389.433 48.8378 392.549 46.9336C395.723 44.9716 399.272 43.9906 403.196 43.9906C407.062 43.9906 410.582 44.9428 413.756 46.847C416.929 48.7512 419.411 51.3768 421.199 54.7236C423.046 58.0705 423.969 61.879 423.969 66.1491V66.5819ZM403.196 45.6352C399.733 45.6352 396.589 46.4719 393.761 48.1453C390.934 49.8188 388.654 52.1269 386.923 55.0699C385.25 58.0128 384.326 61.3019 384.153 64.9373H422.325C422.152 61.3019 421.199 58.0128 419.468 55.0699C417.737 52.1269 415.458 49.8188 412.63 48.1453C409.803 46.4719 406.658 45.6352 403.196 45.6352ZM440.321 55.8489C441.591 52.0404 443.726 49.1263 446.726 47.1067C449.727 45.0293 453.449 43.9906 457.892 43.9906V45.7218H457.373C452.006 45.7218 447.823 47.4529 444.822 50.9152C441.821 54.3197 440.321 58.9938 440.321 64.9373V89H438.59V44.2503H440.321V55.8489ZM506.49 44.2503L482.687 96.1842C481.071 99.7619 479.254 102.301 477.234 103.801C475.214 105.301 472.82 106.052 470.05 106.052C466.01 106.052 462.779 104.724 460.355 102.07L461.654 100.685C462.866 102.012 464.135 102.964 465.462 103.541C466.789 104.119 468.347 104.407 470.136 104.407C472.444 104.407 474.435 103.743 476.109 102.416C477.84 101.147 479.456 98.8963 480.956 95.6648L484.072 88.8269L463.558 44.2503H465.549L485.024 87.0092L504.499 44.2503H506.49Z" fill="#383838"/>
<path d="M156.602 53.4253C162.2 54.1177 166.47 56.022 169.413 59.138C172.356 62.2541 173.827 66.1491 173.827 70.8231C173.827 74.3431 172.933 77.5457 171.144 80.4309C169.355 83.3161 166.643 85.6243 163.007 87.3554C159.43 89.0289 155.044 89.8656 149.851 89.8656C145.523 89.8656 141.34 89.2597 137.3 88.0479C133.319 86.7784 129.914 85.0473 127.087 82.8545L131.934 74.1123C134.126 75.9588 136.781 77.4303 139.897 78.5267C143.071 79.5653 146.331 80.0847 149.678 80.0847C153.659 80.0847 156.775 79.2768 159.026 77.6611C161.334 75.9877 162.488 73.7372 162.488 70.9097C162.488 68.0822 161.392 65.8894 159.199 64.3314C157.064 62.7157 153.775 61.9078 149.332 61.9078H143.792V54.2043L157.554 37.8451H130.029V28.4105H171.317V35.9409L156.602 53.4253ZM185.515 28.4105H212.001C218.464 28.4105 224.206 29.68 229.226 32.219C234.246 34.7002 238.141 38.2491 240.911 42.8654C243.681 47.424 245.066 52.704 245.066 58.7052C245.066 64.7065 243.681 70.0153 240.911 74.6316C238.141 79.1903 234.246 82.7391 229.226 85.2781C224.206 87.7594 218.464 89 212.001 89H185.515V28.4105ZM211.482 79.4788C215.925 79.4788 219.82 78.6421 223.167 76.9687C226.571 75.2375 229.168 72.8139 230.957 69.6979C232.804 66.5242 233.727 62.8599 233.727 58.7052C233.727 54.5505 232.804 50.9152 230.957 47.7991C229.168 44.6254 226.571 42.2018 223.167 40.5284C219.82 38.7973 215.925 37.9317 211.482 37.9317H196.767V79.4788H211.482Z" fill="#383838"/>
<path d="M11.3038 55.0504C29.0493 78.5282 51.1047 86.1339 75.3529 87.6785C71.6407 96.1588 69.0897 99.9905 63.8786 106.344C41.628 107.758 27.3125 98.2106 19.2023 86.4585C15.1064 80.5231 12.5867 74.0139 11.4418 68.0487C10.4858 63.0672 10.5 58.5296 11.3038 55.0504Z" fill="#0070ED" stroke="#0070ED" stroke-width="2.11662"/>
<path d="M79.1099 99.0712C89.9859 72.572 85.4295 50.3266 74.7089 29.2473C83.6526 28.1554 88.1266 28.394 96.0313 29.6116C108.241 47.5512 107.335 64.2748 101.508 76.8921C98.5656 83.2643 94.3609 88.6004 89.9308 92.5152C86.2313 95.7843 82.4228 98.0207 79.1099 99.0712Z" fill="#888888" stroke="#888888" stroke-width="2.06012"/>
<path d="M86.4531 18.8528C56.2952 22.637 38.1473 38.7197 24.2862 59.9848C18.5889 52.1143 16.4807 47.7812 13.4784 39.6675C23.6691 18.6639 39.5696 10.6482 54.233 9.43683C61.6344 8.82539 68.737 9.94725 74.6479 12.0339C79.6617 13.8038 83.7573 16.2455 86.4531 18.8528Z" fill="#94DCAA" stroke="#94DCAA" stroke-width="2.06012"/>
<path d="M98.4754 16.8986C90.4086 8.83051 80.1304 3.33575 68.9406 1.10917C57.7508 -1.11742 46.1521 0.024302 35.6113 4.38991C25.0705 8.75552 16.0609 16.1491 9.72214 25.6351C3.38334 35.1214 0 46.2743 0 57.6835C0 69.0927 3.38334 80.2456 9.72214 89.7318C16.0609 99.2178 25.0705 106.611 35.6113 110.977C46.1521 115.343 57.7508 116.484 68.9406 114.258C80.1304 112.031 90.4086 106.536 98.4754 98.4684C109.291 87.6509 115.367 72.9803 115.367 57.6835C115.367 42.3866 109.291 27.7161 98.4754 16.8986ZM15.0441 38.1628C17.9507 31.7158 22.2576 25.9975 27.6518 21.4241C33.0458 16.8506 39.3914 13.5367 46.2269 11.7235C53.0626 9.91043 60.2164 9.64365 67.1681 10.9426C74.1198 12.2415 80.6945 15.0733 86.4144 19.2323C72.2556 17.8951 54.5311 25.1317 40.1627 39.4738C34.7399 44.8878 30.1456 51.0725 26.5284 57.8277C21.6086 51.9745 17.7247 45.3238 15.0441 38.1628ZM46.8487 105.076C35.9004 102.142 26.3566 95.4015 19.9315 86.064C13.5064 76.7266 10.6208 65.4044 11.793 54.1306C17.7447 67.057 32.7688 78.8035 52.486 84.0475C59.8468 86.0442 67.465 86.928 75.0874 86.6694C72.4968 93.8354 68.7113 100.511 63.8915 106.413C58.1734 106.991 52.3976 106.52 46.8487 105.023V105.076ZM82.7437 50.2501C80.7999 42.8561 77.7786 35.7885 73.7764 29.2744C81.2732 27.9398 88.942 27.8867 96.4565 29.117C99.82 33.7735 102.3 39.0082 103.772 44.5605C106.71 55.5105 105.647 67.1493 100.774 77.3859C95.9009 87.6224 87.537 95.7855 77.185 100.409C85.3656 88.8458 87.9875 69.8887 82.7437 50.2501Z" fill="#383838"/>
</svg>
