<svg width="18" height="19" viewBox="0 0 18 19" fill="none" xmlns="http://www.w3.org/2000/svg">
<path d="M14.7692 14.846C15.9774 13.6378 14.3747 10.0762 11.1894 6.89102C8.00422 3.7058 4.44267 2.10311 3.23449 3.31129C2.0263 4.51947 3.629 8.08103 6.81421 11.2662C9.99943 14.4515 13.561 16.0542 14.7692 14.846Z" stroke="#383838" stroke-linecap="round" stroke-linejoin="round"/>
<path d="M11.1894 11.2662C14.3747 8.08099 15.9774 4.51944 14.7692 3.31126C13.561 2.10307 9.99943 3.70577 6.81421 6.89099C3.629 10.0762 2.0263 13.6378 3.23449 14.8459C4.44267 16.0541 8.00422 14.4514 11.1894 11.2662Z" stroke="#383838" stroke-linecap="round" stroke-linejoin="round"/>
<path d="M9 9.92236C9.46599 9.92236 9.84375 9.5446 9.84375 9.07861C9.84375 8.61262 9.46599 8.23486 9 8.23486C8.53401 8.23486 8.15625 8.61262 8.15625 9.07861C8.15625 9.5446 8.53401 9.92236 9 9.92236Z" fill="#383838"/>
</svg>
