<svg width="18" height="18" viewBox="0 0 18 18" fill="none" xmlns="http://www.w3.org/2000/svg">
<path d="M6.1875 3.9375H4.5C4.18934 3.9375 3.9375 4.18934 3.9375 4.5V13.5C3.9375 13.8107 4.18934 14.0625 4.5 14.0625H6.1875C6.49816 14.0625 6.75 13.8107 6.75 13.5V4.5C6.75 4.18934 6.49816 3.9375 6.1875 3.9375Z" stroke="#383838" stroke-linecap="round" stroke-linejoin="round"/>
<path d="M13.5 3.9375H11.8125C11.5018 3.9375 11.25 4.18934 11.25 4.5V13.5C11.25 13.8107 11.5018 14.0625 11.8125 14.0625H13.5C13.8107 14.0625 14.0625 13.8107 14.0625 13.5V4.5C14.0625 4.18934 13.8107 3.9375 13.5 3.9375Z" stroke="#383838" stroke-linecap="round" stroke-linejoin="round"/>
<path d="M14.0625 5.625H15.75C15.8992 5.625 16.0423 5.68426 16.1477 5.78975C16.2532 5.89524 16.3125 6.03832 16.3125 6.1875V11.8125C16.3125 11.9617 16.2532 12.1048 16.1477 12.2102C16.0423 12.3157 15.8992 12.375 15.75 12.375H14.0625" stroke="#383838" stroke-linecap="round" stroke-linejoin="round"/>
<path d="M3.9375 12.375H2.25C2.10082 12.375 1.95774 12.3157 1.85225 12.2102C1.74676 12.1048 1.6875 11.9617 1.6875 11.8125V6.1875C1.6875 6.03832 1.74676 5.89524 1.85225 5.78975C1.95774 5.68426 2.10082 5.625 2.25 5.625H3.9375" stroke="#383838" stroke-linecap="round" stroke-linejoin="round"/>
<path d="M6.75 9H11.25" stroke="#383838" stroke-linecap="round" stroke-linejoin="round"/>
<path d="M16.3125 9H17.4375" stroke="#383838" stroke-linecap="round" stroke-linejoin="round"/>
<path d="M0.5625 9H1.6875" stroke="#383838" stroke-linecap="round" stroke-linejoin="round"/>
</svg>
