<svg width="18" height="18" viewBox="0 0 18 18" fill="none" xmlns="http://www.w3.org/2000/svg">
<path d="M15.75 12.4665V5.53368C15.7495 5.43354 15.7225 5.33531 15.6719 5.2489C15.6213 5.16249 15.5488 5.09095 15.4617 5.04149L9.27422 1.56103C9.19085 1.51289 9.09627 1.48755 9 1.48755C8.90373 1.48755 8.80915 1.51289 8.72578 1.56103L2.53828 5.04149C2.4512 5.09095 2.3787 5.16249 2.32808 5.2489C2.27747 5.33531 2.25054 5.43354 2.25 5.53368V12.4665C2.25054 12.5666 2.27747 12.6649 2.32808 12.7513C2.3787 12.8377 2.4512 12.9092 2.53828 12.9587L8.72578 16.4392C8.80915 16.4873 8.90373 16.5126 9 16.5126C9.09627 16.5126 9.19085 16.4873 9.27422 16.4392L15.4617 12.9587C15.5488 12.9092 15.6213 12.8377 15.6719 12.7513C15.7225 12.6649 15.7495 12.5666 15.75 12.4665V12.4665Z" stroke="#383838" stroke-linecap="round" stroke-linejoin="round"/>
<path d="M15.6725 5.24524L9.06309 8.99993L2.32715 5.24524" stroke="#383838" stroke-linecap="round" stroke-linejoin="round"/>
<path d="M9.06328 9L9 16.5094" stroke="#383838" stroke-linecap="round" stroke-linejoin="round"/>
<path d="M12.4453 3.33984L9 5.28047L5.55469 3.33984" stroke="#383838" stroke-linecap="round" stroke-linejoin="round"/>
<path d="M12.375 14.6954V10.8212L15.75 8.92273" stroke="#383838" stroke-linecap="round" stroke-linejoin="round"/>
<path d="M5.625 14.6954V10.8212L2.25 8.92273" stroke="#383838" stroke-linecap="round" stroke-linejoin="round"/>
</svg>
