<svg width="571" height="150" viewBox="0 0 571 150" fill="none" xmlns="http://www.w3.org/2000/svg">
<path opacity="0.8" d="M143.624 60.6385L103.438 -1.75658e-06L103.363 -1.75989e-06L72.3049 46.8897L81.433 60.6385L143.624 60.6385Z" fill="#94DCAA"/>
<path d="M41.1335 -1.36254e-06L0.986051 60.6385L63.1769 60.6385L72.3049 46.8897L41.2472 -1.35757e-06L41.1335 -1.36254e-06Z" fill="#8D8B8B"/>
<path d="M102.453 127.223L142.639 66.5852L80.4473 66.5852L71.3194 80.3718L102.377 127.223L102.453 127.223Z" fill="#0070ED"/>
<path d="M-1.52588e-05 66.5854L40.1863 127.223L40.2622 127.223L71.3199 80.3721L62.1919 66.5854L-1.52588e-05 66.5854Z" fill="#404040"/>
<path opacity="0.8" d="M103.363 0L41.247 -2.71516e-06L72.3049 46.8897L103.363 0Z" fill="#94DCAA"/>
<path d="M40.262 127.225L102.378 127.225L71.3197 80.3722L40.262 127.225Z" fill="#0070ED"/>
<path d="M176.498 91.65C182.095 92.3425 186.365 94.2467 189.308 97.3628C192.251 100.479 193.723 104.374 193.723 109.048C193.723 112.568 192.828 115.77 191.04 118.656C189.251 121.541 186.539 123.849 182.903 125.58C179.326 127.254 174.94 128.09 169.747 128.09C165.419 128.09 161.235 127.484 157.196 126.273C153.214 125.003 149.81 123.272 146.982 121.079L151.829 112.337C154.022 114.184 156.677 115.655 159.793 116.751C162.966 117.79 166.227 118.309 169.574 118.309C173.555 118.309 176.671 117.502 178.922 115.886C181.23 114.212 182.384 111.962 182.384 109.134C182.384 106.307 181.288 104.114 179.095 102.556C176.96 100.94 173.671 100.133 169.227 100.133H163.688V92.429L177.45 76.0699H149.925V66.6352H191.213V74.1656L176.498 91.65ZM205.411 66.6352H231.897C238.36 66.6352 244.101 67.9047 249.122 70.4437C254.142 72.925 258.037 76.4738 260.807 81.0901C263.577 85.6488 264.961 90.9287 264.961 96.93C264.961 102.931 263.577 108.24 260.807 112.856C258.037 117.415 254.142 120.964 249.122 123.503C244.101 125.984 238.36 127.225 231.897 127.225H205.411V66.6352ZM231.378 117.704C235.821 117.704 239.716 116.867 243.063 115.193C246.467 113.462 249.064 111.039 250.853 107.923C252.699 104.749 253.623 101.085 253.623 96.93C253.623 92.7753 252.699 89.1399 250.853 86.0239C249.064 82.8501 246.467 80.4265 243.063 78.7531C239.716 77.022 235.821 76.1564 231.378 76.1564H216.663V117.704H231.378Z" fill="#383838"/>
<path d="M285.747 68.2798H263.242V66.6352H309.982V68.2798H287.478V127.225H285.747V68.2798ZM320.733 94.0736C322.003 90.2651 324.138 87.3511 327.138 85.3314C330.139 83.254 333.861 82.2154 338.304 82.2154V83.9465H337.785C332.418 83.9465 328.235 85.6776 325.234 89.1399C322.233 92.5444 320.733 97.2185 320.733 103.162V127.225H319.002V82.475H320.733V94.0736ZM365.573 82.2154C370.767 82.2154 374.719 83.5714 377.432 86.2835C380.201 88.9379 381.586 92.8041 381.586 97.8821V127.225H379.855V117.704C378.413 120.762 376.22 123.157 373.277 124.888C370.392 126.619 366.901 127.484 362.804 127.484C357.841 127.484 353.946 126.359 351.118 124.109C348.349 121.801 346.964 118.742 346.964 114.934C346.964 111.356 348.204 108.471 350.686 106.278C353.225 104.028 357.293 102.902 362.89 102.902H379.855V97.9686C379.855 93.2946 378.643 89.7746 376.22 87.4088C373.854 85.0429 370.334 83.8599 365.66 83.8599C362.428 83.8599 359.399 84.437 356.571 85.5911C353.802 86.6875 351.407 88.1878 349.387 90.092L348.176 88.8802C350.311 86.8029 352.907 85.1871 355.966 84.0331C359.024 82.8213 362.226 82.2154 365.573 82.2154ZM362.804 125.84C371.113 125.84 376.797 122.031 379.855 114.414V104.547H362.804C357.956 104.547 354.379 105.47 352.071 107.317C349.82 109.163 348.695 111.673 348.695 114.847C348.695 118.252 349.935 120.935 352.417 122.897C354.898 124.859 358.36 125.84 362.804 125.84ZM417.699 127.484C413.487 127.484 409.707 126.532 406.36 124.628C403.014 122.666 400.388 119.983 398.484 116.578C396.637 113.116 395.714 109.192 395.714 104.807C395.714 100.421 396.637 96.526 398.484 93.1215C400.388 89.6592 403.014 86.976 406.36 85.0717C409.707 83.1675 413.487 82.2154 417.699 82.2154C420.988 82.2154 424.018 82.8501 426.788 84.1196C429.615 85.3314 431.952 87.1202 433.799 89.4861L432.587 90.7845C430.914 88.4763 428.779 86.7452 426.182 85.5911C423.585 84.437 420.758 83.8599 417.699 83.8599C413.833 83.8599 410.342 84.7544 407.226 86.5432C404.168 88.2743 401.773 90.7556 400.042 93.9871C398.311 97.1608 397.445 100.767 397.445 104.807C397.445 108.904 398.311 112.539 400.042 115.713C401.773 118.886 404.168 121.368 407.226 123.157C410.342 124.945 413.833 125.84 417.699 125.84C420.758 125.84 423.585 125.263 426.182 124.109C428.779 122.955 430.914 121.223 432.587 118.915L433.799 120.214C431.952 122.58 429.615 124.397 426.788 125.667C424.018 126.879 420.988 127.484 417.699 127.484ZM462.289 101.344L449.046 113.376V127.225H447.315V62.9998H449.046V111.298L480.639 82.475H483.149L463.674 100.306L485.14 127.225H482.89L462.289 101.344ZM531.169 104.807H491.353C491.353 108.846 492.248 112.481 494.037 115.713C495.825 118.886 498.278 121.368 501.394 123.157C504.568 124.945 508.117 125.84 512.04 125.84C515.099 125.84 517.955 125.263 520.609 124.109C523.322 122.897 525.543 121.166 527.274 118.915L528.486 120.127C526.524 122.493 524.101 124.311 521.215 125.58C518.33 126.85 515.272 127.484 512.04 127.484C507.77 127.484 503.933 126.532 500.528 124.628C497.182 122.666 494.527 119.954 492.565 116.492C490.661 113.029 489.709 109.134 489.709 104.807C489.709 100.479 490.603 96.6126 492.392 93.208C494.181 89.7458 496.633 87.0625 499.749 85.1583C502.923 83.1963 506.472 82.2154 510.396 82.2154C514.262 82.2154 517.782 83.1675 520.956 85.0717C524.129 86.976 526.611 89.6015 528.4 92.9484C530.246 96.2952 531.169 100.104 531.169 104.374V104.807ZM510.396 83.8599C506.934 83.8599 503.789 84.6967 500.961 86.3701C498.134 88.0435 495.854 90.3517 494.123 93.2946C492.45 96.2375 491.527 99.5267 491.353 103.162H529.525C529.352 99.5267 528.4 96.2375 526.668 93.2946C524.937 90.3517 522.658 88.0435 519.83 86.3701C517.003 84.6967 513.858 83.8599 510.396 83.8599ZM547.521 94.0736C548.791 90.2651 550.926 87.3511 553.926 85.3314C556.927 83.254 560.649 82.2154 565.092 82.2154V83.9465H564.573C559.206 83.9465 555.023 85.6776 552.022 89.1399C549.021 92.5444 547.521 97.2185 547.521 103.162V127.225H545.79V82.475H547.521V94.0736Z" fill="#383838"/>
</svg>
