<svg width="22" height="24" viewBox="0 0 22 24" fill="none" xmlns="http://www.w3.org/2000/svg">
<path d="M4.82999 10.6627C4.82886 9.8473 4.98911 9.03977 5.30152 8.28662C5.61393 7.53348 6.07231 6.84962 6.65025 6.27445C7.22819 5.69929 7.91425 5.2442 8.66889 4.93542C9.42353 4.62664 10.2318 4.47028 11.0472 4.47534C14.4494 4.50063 17.1708 7.32858 17.1708 10.7403V11.3502C17.1708 14.4281 17.8147 16.2141 18.3819 17.1903C18.443 17.2946 18.4755 17.4132 18.4762 17.5341C18.4768 17.655 18.4456 17.7739 18.3856 17.8788C18.3256 17.9838 18.239 18.0711 18.1345 18.1319C18.0301 18.1927 17.9114 18.2249 17.7905 18.2252H4.20958C4.08868 18.2249 3.97001 18.1927 3.86552 18.1318C3.76104 18.071 3.67444 17.9837 3.61447 17.8788C3.5545 17.7738 3.52327 17.6548 3.52394 17.534C3.5246 17.4131 3.55714 17.2945 3.61827 17.1902C4.18574 16.214 4.82999 14.4279 4.82999 11.3502L4.82999 10.6627Z" stroke="white" stroke-width="1.71247" stroke-linecap="round" stroke-linejoin="round"/>
<path d="M8.25 18.2252V18.9127C8.25 19.642 8.53973 20.3415 9.05546 20.8572C9.57118 21.3729 10.2707 21.6627 11 21.6627C11.7293 21.6627 12.4288 21.3729 12.9445 20.8572C13.4603 20.3415 13.75 19.642 13.75 18.9127V18.2252" stroke="white" stroke-width="1.71247" stroke-linecap="round" stroke-linejoin="round"/>
<path d="M17 9C19.2091 9 21 7.20914 21 5C21 2.79086 19.2091 1 17 1C14.7909 1 13 2.79086 13 5C13 7.20914 14.7909 9 17 9Z" fill="#FF3358" stroke="#FF3358" stroke-width="0.666667" stroke-miterlimit="10"/>
</svg>
