<svg width="22" height="22" viewBox="0 0 22 22" fill="none" xmlns="http://www.w3.org/2000/svg">
<path d="M4.83 8.93751C4.82886 8.12214 4.98911 7.31461 5.30152 6.56147C5.61393 5.80832 6.07231 5.12446 6.65025 4.54929C7.22819 3.97413 7.91425 3.51904 8.66889 3.21026C9.42353 2.90148 10.2318 2.74512 11.0472 2.75018C14.4494 2.77547 17.1708 5.60342 17.1708 9.01518V9.62501C17.1708 12.7029 17.8147 14.489 18.3819 15.4652C18.443 15.5695 18.4755 15.688 18.4762 15.8089C18.4768 15.9298 18.4456 16.0487 18.3856 16.1537C18.3256 16.2586 18.239 16.3459 18.1345 16.4067C18.0301 16.4675 17.9114 16.4997 17.7905 16.5H4.20958C4.08868 16.4997 3.97001 16.4675 3.86552 16.4067C3.76104 16.3459 3.67444 16.2586 3.61447 16.1536C3.5545 16.0486 3.52327 15.9297 3.52394 15.8088C3.5246 15.6879 3.55714 15.5693 3.61827 15.465C4.18574 14.4888 4.82999 12.7028 4.82999 9.62501L4.83 8.93751Z" stroke="white" stroke-width="1.71247" stroke-linecap="round" stroke-linejoin="round"/>
<path d="M8.25 16.5V17.1875C8.25 17.9168 8.53973 18.6163 9.05546 19.132C9.57118 19.6478 10.2707 19.9375 11 19.9375C11.7293 19.9375 12.4288 19.6478 12.9445 19.132C13.4603 18.6163 13.75 17.9168 13.75 17.1875V16.5" stroke="white" stroke-width="1.71247" stroke-linecap="round" stroke-linejoin="round"/>
</svg>
