<svg width="606" height="134" viewBox="0 0 606 134" fill="none" xmlns="http://www.w3.org/2000/svg">
<path d="M41.4496 2.06323L77.346 22.788V64.2376L41.4496 84.9624L5.55319 64.2376V22.788L41.4496 2.06323Z" fill="#888888"/>
<path d="M5.57975 64.2375L41.4496 41.3871L77.3194 64.2375L41.4496 84.9623L5.57975 64.2375Z" fill="#383838"/>
<path d="M77.3194 64.2375L41.4496 41.3871L41.4496 2.3288L77.3194 23.0536L77.3194 64.2375Z" fill="#383838"/>
<path d="M38.7925 51.4839V58.6579V92.9335L74.6624 113.658L41.2104 133.32L5.31404 112.595V71.1459L38.7925 51.4839Z" fill="#94DCAA"/>
<path d="M80.2422 28.1021L116.139 48.8268V90.2764L80.2422 111.001L44.3458 90.2764V48.8268L80.2422 28.1021Z" fill="#0070ED"/>
<path d="M44.3723 90.2763L80.2421 67.4259L116.112 90.2763L80.2421 111.001L44.3723 90.2763Z" fill="#003066"/>
<path d="M116.112 90.2765L80.2422 67.4261L80.2422 28.3677L116.112 49.0925L116.112 90.2765Z" fill="#003066"/>
<path d="M5.31404 112.595L38.7925 92.9335L74.6624 113.658L41.4496 133.586L5.31404 112.595Z" fill="#81C095"/>
<path d="M160.181 112.204C154.064 112.204 148.524 110.877 143.562 108.222C138.657 105.51 134.791 101.788 131.963 97.0566C129.193 92.3248 127.808 86.9872 127.808 81.0436C127.808 75.1001 129.222 69.7624 132.05 65.0307C134.877 60.2989 138.743 56.6058 143.648 53.9514C148.611 51.2393 154.151 49.8833 160.267 49.8833C165.23 49.8833 169.76 50.7489 173.857 52.48C177.954 54.2111 181.416 56.7213 184.243 60.0104L176.973 66.8484C172.587 62.1166 167.192 59.7507 160.786 59.7507C156.632 59.7507 152.91 60.674 149.621 62.5205C146.332 64.3094 143.764 66.8195 141.917 70.0509C140.071 73.2824 139.147 76.9466 139.147 81.0436C139.147 85.1406 140.071 88.8048 141.917 92.0363C143.764 95.2677 146.332 97.8067 149.621 99.6533C152.91 101.442 156.632 102.337 160.786 102.337C167.192 102.337 172.587 99.9418 176.973 95.1523L184.243 102.077C181.416 105.366 177.925 107.876 173.77 109.607C169.673 111.338 165.143 112.204 160.181 112.204ZM213.47 112.204C208.796 112.204 204.266 111.54 199.88 110.213C195.552 108.886 192.119 107.126 189.58 104.933L193.475 96.191C195.956 98.1529 198.986 99.7687 202.564 101.038C206.199 102.25 209.834 102.856 213.47 102.856C217.971 102.856 221.317 102.135 223.51 100.692C225.761 99.2493 226.886 97.3451 226.886 94.9792C226.886 93.2481 226.251 91.8343 224.982 90.7379C223.77 89.5839 222.212 88.6894 220.308 88.0547C218.403 87.4199 215.807 86.6986 212.518 85.8908C207.901 84.7944 204.15 83.698 201.265 82.6016C198.438 81.5053 195.985 79.803 193.908 77.4948C191.888 75.1289 190.878 71.9552 190.878 67.9736C190.878 64.6267 191.773 61.5973 193.562 58.8852C195.408 56.1154 198.149 53.9226 201.785 52.3069C205.478 50.6912 209.979 49.8833 215.287 49.8833C218.98 49.8833 222.616 50.3449 226.193 51.2682C229.771 52.1915 232.858 53.5187 235.455 55.2498L231.906 63.992C229.252 62.434 226.482 61.251 223.597 60.4432C220.712 59.6353 217.913 59.2314 215.201 59.2314C210.758 59.2314 207.44 59.9815 205.247 61.4819C203.112 62.9822 202.044 64.973 202.044 67.4543C202.044 69.1854 202.65 70.5991 203.862 71.6955C205.131 72.7919 206.718 73.6575 208.622 74.2922C210.527 74.927 213.123 75.6483 216.413 76.4561C220.913 77.4948 224.607 78.5912 227.492 79.7453C230.377 80.8417 232.829 82.5439 234.849 84.8521C236.926 87.1603 237.965 90.2763 237.965 94.2002C237.965 97.547 237.042 100.577 235.195 103.289C233.406 106.001 230.666 108.165 226.972 109.78C223.279 111.396 218.778 112.204 213.47 112.204ZM274.051 50.7489C279.302 50.7489 283.861 51.6144 287.727 53.3456C291.651 55.0767 294.651 57.558 296.729 60.7894C298.806 64.0208 299.845 67.8582 299.845 72.3014C299.845 76.6869 298.806 80.5243 296.729 83.8134C294.651 87.0449 291.651 89.5261 287.727 91.2573C283.861 92.9884 279.302 93.854 274.051 93.854H260.375V111.338H249.123V50.7489H274.051ZM273.532 84.3328C278.437 84.3328 282.158 83.2941 284.697 81.2167C287.236 79.1394 288.506 76.1676 288.506 72.3014C288.506 68.4352 287.236 65.4635 284.697 63.3861C282.158 61.3087 278.437 60.2701 273.532 60.2701H260.375V84.3328H273.532Z" fill="#383838"/>
<path d="M320.851 52.3934H298.346V50.7489H345.087V52.3934H322.582V111.338H320.851V52.3934ZM355.837 78.1873C357.107 74.3788 359.242 71.4647 362.242 69.4451C365.243 67.3677 368.965 66.329 373.408 66.329V68.0602H372.889C367.522 68.0602 363.339 69.7913 360.338 73.2535C357.338 76.6581 355.837 81.3321 355.837 87.2757V111.338H354.106V66.5887H355.837V78.1873ZM400.678 66.329C405.871 66.329 409.824 67.6851 412.536 70.3972C415.306 73.0516 416.691 76.9178 416.691 81.9957V111.338H414.959V101.817C413.517 104.875 411.324 107.27 408.381 109.001C405.496 110.732 402.005 111.598 397.908 111.598C392.945 111.598 389.05 110.473 386.223 108.222C383.453 105.914 382.068 102.856 382.068 99.0474C382.068 95.4697 383.309 92.5845 385.79 90.3917C388.329 88.1412 392.397 87.016 397.994 87.016H414.959V82.0823C414.959 77.4082 413.748 73.8883 411.324 71.5224C408.958 69.1565 405.438 67.9736 400.764 67.9736C397.533 67.9736 394.503 68.5506 391.676 69.7047C388.906 70.8011 386.511 72.3014 384.492 74.2057L383.28 72.9939C385.415 70.9165 388.012 69.3008 391.07 68.1467C394.128 66.9349 397.331 66.329 400.678 66.329ZM397.908 109.953C406.217 109.953 411.901 106.145 414.959 98.528V88.6606H397.908C393.061 88.6606 389.483 89.5839 387.175 91.4304C384.924 93.2769 383.799 95.7871 383.799 98.9608C383.799 102.365 385.04 105.049 387.521 107.011C390.002 108.973 393.465 109.953 397.908 109.953ZM452.804 111.598C448.591 111.598 444.811 110.646 441.465 108.742C438.118 106.78 435.492 104.096 433.588 100.692C431.741 97.2297 430.818 93.3058 430.818 88.9203C430.818 84.5347 431.741 80.6397 433.588 77.2351C435.492 73.7729 438.118 71.0896 441.465 69.1854C444.811 67.2811 448.591 66.329 452.804 66.329C456.093 66.329 459.122 66.9638 461.892 68.2333C464.719 69.4451 467.056 71.2339 468.903 73.5998L467.691 74.8981C466.018 72.5899 463.883 70.8588 461.286 69.7047C458.689 68.5506 455.862 67.9736 452.804 67.9736C448.937 67.9736 445.446 68.868 442.33 70.6568C439.272 72.388 436.877 74.8693 435.146 78.1007C433.415 81.2744 432.549 84.881 432.549 88.9203C432.549 93.0173 433.415 96.6526 435.146 99.8264C436.877 103 439.272 105.481 442.33 107.27C445.446 109.059 448.937 109.953 452.804 109.953C455.862 109.953 458.689 109.376 461.286 108.222C463.883 107.068 466.018 105.337 467.691 103.029L468.903 104.327C467.056 106.693 464.719 108.511 461.892 109.78C459.122 110.992 456.093 111.598 452.804 111.598ZM497.394 85.458L484.15 97.4893V111.338H482.419V47.1135H484.15V95.412L515.744 66.5887H518.254L498.779 84.4193L520.245 111.338H517.994L497.394 85.458ZM566.274 88.9203H526.458C526.458 92.9596 527.352 96.5949 529.141 99.8264C530.93 103 533.382 105.481 536.498 107.27C539.672 109.059 543.221 109.953 547.145 109.953C550.203 109.953 553.059 109.376 555.714 108.222C558.426 107.011 560.647 105.279 562.379 103.029L563.59 104.241C561.628 106.607 559.205 108.424 556.32 109.694C553.434 110.963 550.376 111.598 547.145 111.598C542.875 111.598 539.037 110.646 535.633 108.742C532.286 106.78 529.631 104.068 527.669 100.605C525.765 97.1431 524.813 93.2481 524.813 88.9203C524.813 84.5924 525.708 80.7262 527.496 77.3217C529.285 73.8594 531.738 71.1762 534.854 69.2719C538.027 67.31 541.576 66.329 545.5 66.329C549.366 66.329 552.886 67.2811 556.06 69.1854C559.234 71.0896 561.715 73.7152 563.504 77.062C565.35 80.4089 566.274 84.2174 566.274 88.4875V88.9203ZM545.5 67.9736C542.038 67.9736 538.893 68.8103 536.065 70.4837C533.238 72.1572 530.959 74.4653 529.227 77.4082C527.554 80.3512 526.631 83.6403 526.458 87.2757H564.629C564.456 83.6403 563.504 80.3512 561.773 77.4082C560.042 74.4653 557.762 72.1572 554.935 70.4837C552.107 68.8103 548.962 67.9736 545.5 67.9736ZM582.625 78.1873C583.895 74.3788 586.03 71.4647 589.031 69.4451C592.031 67.3677 595.753 66.329 600.196 66.329V68.0602H599.677C594.31 68.0602 590.127 69.7913 587.126 73.2535C584.126 76.6581 582.625 81.3321 582.625 87.2757V111.338H580.894V66.5887H582.625V78.1873Z" fill="#383838"/>
</svg>
