<svg width="22" height="22" viewBox="0 0 22 22" fill="none" xmlns="http://www.w3.org/2000/svg">
<path d="M10.605 8.61656V4.30828C10.605 3.8688 10.7796 3.44733 11.0903 3.13658C11.4011 2.82582 11.8225 2.65125 12.262 2.65125C12.7015 2.65125 13.123 2.82582 13.4337 3.13658C13.7445 3.44733 13.919 3.8688 13.919 4.30828V10.9364" stroke="white" stroke-width="1.5" stroke-linecap="round" stroke-linejoin="round"/>
<path d="M7.29089 9.27937V2.98265C7.29089 2.54318 7.46547 2.12171 7.77623 1.81096C8.08698 1.5002 8.50845 1.32562 8.94792 1.32562C9.3874 1.32562 9.80887 1.5002 10.1196 1.81096C10.4304 2.12171 10.605 2.54318 10.605 2.98265V8.61656" stroke="white" stroke-width="1.5" stroke-linecap="round" stroke-linejoin="round"/>
<path d="M10.6051 14.2505C10.6051 13.3715 10.9542 12.5286 11.5757 11.9071C12.1972 11.2856 13.0402 10.9364 13.9191 10.9364V9.27937C13.9191 8.8399 14.0937 8.41842 14.4044 8.10767C14.7152 7.79692 15.1367 7.62234 15.5761 7.62234C16.0156 7.62234 16.4371 7.79692 16.7478 8.10767C17.0586 8.41842 17.2332 8.8399 17.2332 9.27937V12.5934C17.2332 14.3513 16.5349 16.0372 15.2918 17.2802C14.0488 18.5232 12.3629 19.2216 10.6051 19.2216C8.84717 19.2216 7.16128 18.5232 5.91826 17.2802C4.67525 16.0372 3.97693 14.3513 3.97693 12.5934V5.6339C3.97693 5.19443 4.15151 4.77295 4.46226 4.4622C4.77302 4.15145 5.19449 3.97687 5.63396 3.97687C6.07343 3.97687 6.4949 4.15145 6.80566 4.4622C7.11641 4.77295 7.29099 5.19443 7.29099 5.6339V9.27937" stroke="white" stroke-width="1.5" stroke-linecap="round" stroke-linejoin="round"/>
</svg>
