<svg width="344" height="106" viewBox="0 0 344 106" fill="none" xmlns="http://www.w3.org/2000/svg">
<path d="M92.3253 45.1983L76.5173 54.7839V37.042L61.2139 27.7927L46.1627 36.352L46.2467 54.5317L30.5229 63.3606L14.9672 54.5317V36.4534L30.5649 27.6666L30.607 10.1349L46.1627 0.717346L92.3253 27.7927V45.1983Z" fill="#94DCAA"/>
<path d="M45.7988 72.5103L61.2714 81.175V98.9741L45.7988 89.7288V72.5103Z" fill="#8D8B8B"/>
<path d="M0 81.1866V27.7927L14.9671 19.216L30.3547 27.7927L14.9671 36.4534V54.5317L30.5228 63.3185L46.2467 54.5317L61.2716 62.9172V81.1749L45.799 89.8396L30.5228 80.9343L14.9671 89.7632L0 81.1866Z" fill="#0070ED"/>
<g style="mix-blend-mode:multiply">
<path d="M14.9674 36.4532L30.439 45.2822L30.5231 63.3604L14.9674 54.5315V36.4532Z" fill="#DFDFDF"/>
<path d="M46.2469 36.2853L61.4663 45.1983L61.2718 62.9172L46.2469 54.5293V36.2853Z" fill="#8D8B8B"/>
<path d="M30.6068 10.1346L46.0784 18.8794L30.6068 27.6242V10.1346Z" fill="#DFDFDF"/>
<path d="M14.9674 72.1895L30.5524 80.7772L14.9674 89.7675V72.1895Z" fill="#DFDFDF"/>
<path d="M76.5175 37.0419L92.3254 27.7926V45.203L76.5175 54.7838V37.0419Z" fill="#DFDFDF"/>
<path d="M45.7992 71.5819L61.2718 62.9173V81.175L45.7992 89.8396V71.5819Z" fill="#DFDFDF"/>
<path d="M30.4396 45.2822L46.2475 36.4532V54.6997L30.5237 63.3604L30.4396 45.2822Z" fill="#DFDFDF"/>
<path d="M46.2469 36.2851L61.13 27.7084L76.5175 37.0418L61.4663 45.1981L46.2469 36.2851Z" fill="#DFDFDF"/>
<path d="M0.0842285 27.8051L14.9673 19.216L30.2707 27.7927L14.9673 36.4534L0.0842285 27.8051Z" fill="#DFDFDF"/>
<path d="M30.6913 63.2762L46.0788 54.5314L61.2719 62.9172L45.7993 71.5819L30.6913 63.2762Z" fill="#DFDFDF"/>
</g>
<path d="M95.8803 92.244C92.9875 92.244 90.184 91.8333 87.4698 91.0119C84.7913 90.1905 82.6663 89.1012 81.0949 87.7441L83.5056 82.3335C85.0413 83.5478 86.9162 84.5478 89.1305 85.3335C91.3804 86.0834 93.6304 86.4584 95.8803 86.4584C98.666 86.4584 100.737 86.012 102.094 85.1192C103.487 84.2263 104.184 83.0478 104.184 81.5835C104.184 80.5121 103.791 79.6372 103.005 78.9586C102.255 78.2443 101.291 77.6908 100.112 77.2979C98.9338 76.9051 97.3267 76.4587 95.291 75.9587C92.434 75.2801 90.1126 74.6016 88.3269 73.923C86.5769 73.2444 85.0591 72.1909 83.7734 70.7624C82.5235 69.2981 81.8985 67.3339 81.8985 64.8696C81.8985 62.7983 82.452 60.9233 83.5592 59.2448C84.702 57.5305 86.3984 56.1734 88.6483 55.1734C90.934 54.1735 93.7196 53.6735 97.0053 53.6735C99.2909 53.6735 101.541 53.9592 103.755 54.5306C105.969 55.102 107.88 55.9234 109.487 56.9948L107.291 62.4054C105.648 61.4411 103.934 60.709 102.148 60.209C100.362 59.709 98.6302 59.459 96.9517 59.459C94.2018 59.459 92.1482 59.9233 90.7911 60.8519C89.4697 61.7804 88.809 63.0125 88.809 64.5482C88.809 65.6196 89.184 66.4946 89.934 67.1732C90.7197 67.8517 91.7018 68.3874 92.8804 68.7803C94.0589 69.1731 95.666 69.6195 97.7017 70.1195C100.487 70.7624 102.773 71.4409 104.559 72.1552C106.344 72.8337 107.862 73.8873 109.112 75.3158C110.398 76.7444 111.041 78.6729 111.041 81.1014C111.041 83.1728 110.469 85.0478 109.326 86.7263C108.219 88.4048 106.523 89.7441 104.237 90.744C101.952 91.744 99.1659 92.244 95.8803 92.244ZM135.464 92.244C131.642 92.244 128.196 91.4226 125.125 89.7798C122.053 88.1013 119.643 85.7977 117.893 82.8692C116.143 79.905 115.268 76.6015 115.268 72.9587C115.268 69.316 116.143 66.0303 117.893 63.1018C119.643 60.1376 122.053 57.8341 125.125 56.1913C128.196 54.5127 131.642 53.6735 135.464 53.6735C139.285 53.6735 142.731 54.5127 145.803 56.1913C148.874 57.8341 151.285 60.1197 153.035 63.0483C154.785 65.9768 155.66 69.2803 155.66 72.9587C155.66 76.6372 154.785 79.9407 153.035 82.8692C151.285 85.7977 148.874 88.1013 145.803 89.7798C142.731 91.4226 139.285 92.244 135.464 92.244ZM135.464 86.137C137.964 86.137 140.214 85.5835 142.214 84.4763C144.213 83.3335 145.785 81.7621 146.928 79.7622C148.071 77.7265 148.642 75.4587 148.642 72.9587C148.642 70.4588 148.071 68.2089 146.928 66.2089C145.785 64.1732 144.213 62.6018 142.214 61.4947C140.214 60.3519 137.964 59.7805 135.464 59.7805C132.964 59.7805 130.714 60.3519 128.714 61.4947C126.714 62.6018 125.142 64.1732 124 66.2089C122.857 68.2089 122.285 70.4588 122.285 72.9587C122.285 75.4587 122.857 77.7265 124 79.7622C125.142 81.7621 126.714 83.3335 128.714 84.4763C130.714 85.5835 132.964 86.137 135.464 86.137Z" fill="#404040"/>
<path d="M167.451 55.227H153.522V54.2092H182.45V55.227H168.522V91.7083H167.451V55.227ZM189.104 71.1909C189.89 68.8338 191.211 67.0303 193.068 65.7803C194.925 64.4946 197.229 63.8518 199.979 63.8518V64.9232H199.657C196.336 64.9232 193.747 65.9946 191.89 68.1374C190.032 70.2445 189.104 73.1373 189.104 76.8158V91.7083H188.032V64.0125H189.104V71.1909ZM216.856 63.8518C220.07 63.8518 222.516 64.6911 224.195 66.3696C225.909 68.0124 226.766 70.4052 226.766 73.548V91.7083H225.695V85.8156C224.802 87.7084 223.445 89.1905 221.624 90.2619C219.838 91.3333 217.677 91.869 215.142 91.869C212.07 91.869 209.659 91.1726 207.91 89.7798C206.195 88.3512 205.338 86.4584 205.338 84.1013C205.338 81.8871 206.106 80.1014 207.642 78.7443C209.213 77.3515 211.731 76.6551 215.195 76.6551H225.695V73.6016C225.695 70.7088 224.945 68.5303 223.445 67.066C221.981 65.6018 219.802 64.8696 216.909 64.8696C214.909 64.8696 213.034 65.2268 211.284 65.941C209.57 66.6196 208.088 67.5482 206.838 68.7267L206.088 67.9767C207.41 66.691 209.017 65.6911 210.909 64.9768C212.802 64.2268 214.784 63.8518 216.856 63.8518ZM215.142 90.8512C220.284 90.8512 223.802 88.4941 225.695 83.7799V77.6729H215.142C212.142 77.6729 209.927 78.2443 208.499 79.3872C207.106 80.53 206.41 82.0835 206.41 84.0478C206.41 86.1549 207.177 87.8155 208.713 89.0298C210.249 90.2441 212.392 90.8512 215.142 90.8512ZM249.117 91.869C246.51 91.869 244.17 91.2798 242.099 90.1012C240.028 88.8869 238.403 87.2263 237.224 85.1192C236.081 82.9764 235.51 80.5479 235.51 77.8336C235.51 75.1194 236.081 72.7087 237.224 70.6017C238.403 68.4588 240.028 66.7982 242.099 65.6196C244.17 64.4411 246.51 63.8518 249.117 63.8518C251.152 63.8518 253.027 64.2447 254.742 65.0304C256.492 65.7803 257.938 66.8875 259.081 68.3517L258.331 69.1553C257.295 67.7267 255.974 66.6553 254.367 65.941C252.76 65.2268 251.01 64.8696 249.117 64.8696C246.724 64.8696 244.563 65.4232 242.635 66.5303C240.742 67.6017 239.26 69.1374 238.188 71.1374C237.117 73.1016 236.581 75.3337 236.581 77.8336C236.581 80.3693 237.117 82.6192 238.188 84.5835C239.26 86.5477 240.742 88.0834 242.635 89.1905C244.563 90.2976 246.724 90.8512 249.117 90.8512C251.01 90.8512 252.76 90.4941 254.367 89.7798C255.974 89.0655 257.295 87.9941 258.331 86.5656L259.081 87.3691C257.938 88.8334 256.492 89.9584 254.742 90.744C253.027 91.494 251.152 91.869 249.117 91.869ZM276.714 75.6908L268.518 83.1371V91.7083H267.446V51.9592H268.518V81.8514L288.071 64.0125H289.624L277.571 75.048L290.856 91.7083H289.463L276.714 75.6908ZM319.344 77.8336H294.702C294.702 80.3336 295.255 82.5835 296.362 84.5835C297.469 86.5477 298.987 88.0834 300.916 89.1905C302.88 90.2976 305.076 90.8512 307.505 90.8512C309.398 90.8512 311.166 90.4941 312.808 89.7798C314.487 89.0298 315.862 87.9584 316.933 86.5656L317.683 87.3156C316.469 88.7798 314.969 89.9048 313.183 90.6905C311.398 91.4762 309.505 91.869 307.505 91.869C304.862 91.869 302.487 91.2798 300.38 90.1012C298.309 88.8869 296.666 87.2084 295.452 85.0656C294.273 82.9228 293.684 80.5121 293.684 77.8336C293.684 75.1551 294.237 72.7623 295.344 70.6552C296.452 68.5124 297.969 66.8517 299.898 65.6732C301.862 64.4589 304.059 63.8518 306.487 63.8518C308.88 63.8518 311.058 64.4411 313.023 65.6196C314.987 66.7982 316.523 68.4231 317.63 70.4945C318.773 72.5659 319.344 74.923 319.344 77.5658V77.8336ZM306.487 64.8696C304.344 64.8696 302.398 65.3875 300.648 66.4232C298.898 67.4589 297.487 68.8874 296.416 70.7088C295.38 72.5302 294.809 74.5658 294.702 76.8158H318.326C318.219 74.5658 317.63 72.5302 316.558 70.7088C315.487 68.8874 314.076 67.4589 312.326 66.4232C310.576 65.3875 308.63 64.8696 306.487 64.8696ZM329.464 71.1909C330.25 68.8338 331.571 67.0303 333.428 65.7803C335.285 64.4946 337.589 63.8518 340.339 63.8518V64.9232H340.017C336.696 64.9232 334.107 65.9946 332.25 68.1374C330.393 70.2445 329.464 73.1373 329.464 76.8158V91.7083H328.393V64.0125H329.464V71.1909Z" fill="#404040"/>
<path d="M61.2715 45.2785L76.7441 36.9233V88.2924L61.2715 99.1232V45.2785Z" fill="#383838" fill-opacity="0.96"/>
</svg>
