<svg width="22" height="22" viewBox="0 0 22 22" fill="none" xmlns="http://www.w3.org/2000/svg">
<path d="M3.31409 7.56548V17.2331C3.31409 17.4089 3.38392 17.5775 3.50822 17.7018C3.63252 17.8261 3.80111 17.8959 3.9769 17.8959H17.2331C17.4089 17.8959 17.5775 17.8261 17.7018 17.7018C17.8261 17.5775 17.896 17.4089 17.896 17.2331V3.97687C17.896 3.80108 17.8261 3.63249 17.7018 3.50819C17.5775 3.38389 17.4089 3.31406 17.2331 3.31406H7.56551C7.47847 3.31406 7.39228 3.3312 7.31186 3.36451C7.23144 3.39782 7.15838 3.44664 7.09683 3.50819L3.50822 7.0968C3.44667 7.15835 3.39785 7.23141 3.36454 7.31183C3.33123 7.39225 3.31409 7.47844 3.31409 7.56548V7.56548Z" stroke="white" stroke-width="1.5" stroke-linecap="round" stroke-linejoin="round"/>
<path d="M10.6055 14.5826C11.8867 14.5826 12.9253 13.544 12.9253 12.2628C12.9253 10.9816 11.8867 9.94293 10.6055 9.94293C9.32427 9.94293 8.28564 10.9816 8.28564 12.2628C8.28564 13.544 9.32427 14.5826 10.6055 14.5826Z" stroke="white" stroke-width="1.5" stroke-linecap="round" stroke-linejoin="round"/>
<path d="M7.95374 6.62888H13.2562V3.31482" stroke="white" stroke-width="1.5" stroke-linecap="round" stroke-linejoin="round"/>
</svg>
